<svg width="20" height="20" viewBox="0 0 20 20" fill="none" xmlns="http://www.w3.org/2000/svg">
<path d="M13.1615 2.32773C13.4865 2.00273 14.014 2.00273 14.3402 2.32773L17.6727 5.66023C17.9977 5.98523 17.9977 6.51398 17.6727 6.83898L6.84023 17.6727C6.76272 17.7501 6.67072 17.8115 6.56949 17.8533C6.46825 17.8951 6.35977 17.9166 6.25023 17.9165H2.91773C2.69661 17.9165 2.48454 17.8286 2.32818 17.6723C2.17183 17.5159 2.08398 17.3039 2.08398 17.0827V13.7502C2.08398 13.529 2.17148 13.3165 2.32773 13.1602L10.6615 4.82898L13.1615 2.32898V2.32773ZM11.2502 6.59523L3.75023 14.0952V16.2502H5.90523L13.4052 8.75023L11.2502 6.59523ZM14.584 7.57023L15.9052 6.25023L13.7502 4.09523L12.429 5.41648L14.584 7.57148V7.57023Z" fill="#131314"/>
</svg>
